<?xml version="1.0" standalone="no"?>
<!DOCTYPE svg PUBLIC "-//W3C//DTD SVG 1.1//EN" "http://www.w3.org/Graphics/SVG/1.1/DTD/svg11.dtd" >
<svg xmlns="http://www.w3.org/2000/svg">
<metadata>
This is a custom SVG webfont generated by Font Squirrel.
Copyright   : Matrix Code NFI v10  copyright  2003  Thomas W Otto  Norfok Incredible Font Design  wwwnorfokcom
Designer    : Thomas W Otto
Foundry     : Thomas W Otto
Foundry URL : httpwwwnorfokcom
</metadata>
<defs>
<font id="MatrixCodeNFIRegular" horiz-adv-x="1069" >
<font-face units-per-em="2048" ascent="1638" descent="-410" />
<missing-glyph horiz-adv-x="1024" />
<glyph unicode=" "  horiz-adv-x="1024" />
<glyph unicode="&#x09;" horiz-adv-x="1024" />
<glyph unicode="&#xa0;" horiz-adv-x="1024" />
<glyph unicode="!" horiz-adv-x="956" d="M102 705q104 199 172 430t99 497l145 -55q-14 -78 -27.5 -143.5t-35.5 -137.5l319 17l80 -105q-29 -223 -58.5 -383.5t-70.5 -279.5l80 -129l-80 -160l-63 104q-47 -137 -134.5 -272t-210.5 -264l-112 129q129 119 213 255t131 296q-47 72 -95 128t-87 95l71 154 q47 -49 87 -97.5t81 -95.5q31 98 47.5 203.5t16.5 228.5h-256q-49 -211 -193 -512z" />
<glyph unicode="&#x22;" horiz-adv-x="1093" d="M102 705v176h402v286q-74 -16 -145.5 -23t-143.5 -7l-25 159q168 8 328 52.5t313 132.5l80 -154q-63 -49 -123.5 -75.5t-123.5 -43.5v-327h327v-176h-327q0 -526 -273 -865l-121 152q123 135 178.5 310t55.5 403h-402z" />
<glyph unicode="#" d="M102 1208l121 97q39 -88 75 -205t69 -260l-136 -97q-25 137 -56.5 252t-72.5 213zM270 25q512 285 529 1359l168 -41q-6 -557 -154.5 -922.5t-445.5 -555.5zM367 1327l120 96q39 -98 75 -207.5t61 -238.5l-136 -96q-25 129 -52 240.5t-68 205.5z" />
<glyph unicode="$" horiz-adv-x="1093" d="M102 784v177h889v-177h-336v-256q0 -434 -209 -704l-127 129q176 223 177 575v256h-394zM240 1280v176h616v-176h-616z" />
<glyph unicode="%" horiz-adv-x="772" d="M102 -80v1616h160v-575q129 -80 232.5 -160t175.5 -162l-80 -168q-98 104 -181 173t-147 108v-832h-160z" />
<glyph unicode="&#x26;" horiz-adv-x="1126" d="M102 881v176h394v495h159v-495h369v-176h-369v-242q0 -248 -71.5 -450.5t-225.5 -356.5l-102 135q240 246 240 721v193h-394z" />
<glyph unicode="'" d="M102 193v176h865v-176h-865zM223 1104v176h617v-176h-617z" />
<glyph unicode="(" horiz-adv-x="1028" d="M102 104q135 104 231.5 228.5t160.5 267.5q-72 98 -127.5 164.5t-96.5 99.5l88 144q63 -63 115.5 -124t93.5 -116q47 123 79 237.5t40 227.5l-504 -49l-8 176l600 55l96 -135q-35 -186 -81 -344t-119 -311q66 -98 129 -209t127 -240l-127 -121q-63 137 -115.5 232.5 t-93.5 152.5q-55 -123 -155.5 -245.5t-244.5 -257.5z" />
<glyph unicode=")" horiz-adv-x="1124" d="M102 416q168 113 304.5 288t248.5 408l-473 -47l-16 174l289 16v369h159v-360l160 24l80 -137q-59 -123 -117.5 -224.5t-122.5 -199.5v-870h-159v671q-47 -72 -116 -136t-149 -120zM655 633l97 135q88 -104 155.5 -192.5t114.5 -167.5l-94 -144q-80 129 -149 220.5 t-124 148.5z" />
<glyph unicode="*" horiz-adv-x="923" d="M102 143q432 469 543 1346l176 -66q-94 -485 -242.5 -838.5t-357.5 -600.5z" />
<glyph unicode="+" horiz-adv-x="1179" d="M102 176q176 385 240 961l152 -50q-47 -358 -112 -611t-144 -421zM645 1159l137 96q113 -266 184.5 -539.5t110.5 -563.5l-159 -64q-47 330 -116 596t-157 475z" />
<glyph unicode="," horiz-adv-x="892" d="M102 184v1256h160v-471q272 47 496 190l33 -190q-129 -57 -261.5 -101.5t-267.5 -66.5v-570q0 -47 19.5 -67.5t60.5 -20.5h440l-24 -176h-457q-98 0 -148.5 52t-50.5 165z" />
<glyph unicode="-" horiz-adv-x="1003" d="M102 1184v176l689 24l110 -129q-35 -532 -196.5 -853.5t-450.5 -448.5l-88 174q258 104 397 367.5t154 689.5h-615z" />
<glyph unicode="." horiz-adv-x="1171" d="M102 608q14 18 45 72.5t68 123t75 144.5t70.5 138.5t54 103.5t23.5 43q20 20 51 20q33 0 60 -20q23 -23 58.5 -83t79.5 -140t94 -172.5t100.5 -178.5t98.5 -157.5t89 -110.5l-119 -160q-123 203 -232.5 390.5t-207.5 361.5q-10 16 -16 16q-10 0 -17 -16 q-111 -238 -256 -512z" />
<glyph unicode="/" horiz-adv-x="1148" d="M102 193q55 119 103.5 274.5t79.5 347.5l145 -72q-45 -213 -91 -370.5t-110 -276.5zM141 983v176h353v449h159v-449h361v-176h-361v-1118h-159v1118h-353zM709 705l120 96q72 -137 128.5 -284.5t89.5 -301.5l-146 -94q-31 154 -78.5 300.5t-113.5 283.5z" />
<glyph unicode="0" d="M102 641q0 211 30 354.5t85 214.5q39 49 114 72t204 23q221 0 299 -74q66 -61 99.5 -211t33.5 -379q0 -217 -29 -355.5t-88 -213.5q-37 -45 -114 -67.5t-201 -22.5q-129 0 -204 22.5t-114 71.5q-115 145 -115 565zM287 641q0 -98 4 -177t12 -138l332 823q-41 6 -100 6 q-92 0 -134.5 -13.5t-58.5 -43.5q-29 -53 -42 -165t-13 -292zM416 147q39 -8 119 -8q86 0 125.5 10.5t58.5 34.5q63 76 63 457q0 111 -5 194t-15 144z" />
<glyph unicode="1" horiz-adv-x="702" d="M102 807v227l304 250h194v-1284h-186v1079z" />
<glyph unicode="2" horiz-adv-x="987" d="M102 952q0 162 112 257.5t304 95.5q98 0 182 -22.5t160 -70.5v-200q-113 76 -197.5 110.5t-152.5 34.5q-47 0 -87 -14.5t-68.5 -39t-45 -58t-16.5 -72.5q0 -70 40 -126t144 -128l146 -98q145 -98 202 -218q59 -119 60 -317v-47q0 -14 -2 -29h-760v156h567v37q0 45 -10 83 t-36 74.5t-67.5 72.5t-105.5 79l-119 78q-135 88 -192.5 173t-57.5 189z" />
<glyph unicode="3" horiz-adv-x="1021" d="M102 -18v155h547l-344 352v129q20 0 42 -2t24 -2q186 0 273 58.5t87 183.5q0 123 -81 195.5t-216 72.5q-86 0 -166 -21.5t-166 -68.5v185q178 66 320 65q117 0 209 -29.5t156.5 -84t98.5 -131t34 -173.5q0 -168 -99.5 -269t-277.5 -110l329 -329v-176h-770z" />
<glyph unicode="4" horiz-adv-x="870" d="M102 289v190l383 815h185l-400 -848h326v271h172v-717h-172v289h-494z" />
<glyph unicode="5" horiz-adv-x="931" d="M102 453q0 186 125 299q127 115 324 114q37 0 54.5 -1t33.5 -1l-14 266h-484v154h643l41 -590q-70 10 -123 14.5t-92 4.5q-154 0 -238.5 -66.5t-84.5 -183.5q0 -154 122.5 -237t352.5 -83h41q14 0 26 2v-159h-49q-317 0 -497 125q-181 125 -181 342z" />
<glyph unicode="6" d="M102 434q0 193 125 401.5t391 458.5h234q-119 -104 -225.5 -225t-216.5 -276q39 16 78.5 23t80.5 7q86 0 159 -31.5t126 -87t83 -129t30 -159.5q0 -96 -31 -175t-88 -135.5t-136 -88t-173 -31.5q-98 0 -179 31.5t-138.5 90t-88.5 141.5t-31 185zM287 408 q0 -119 67.5 -191t184.5 -72t180 72t63 197q0 117 -65.5 185.5t-181.5 68.5q-113 0 -180.5 -70.5t-67.5 -189.5z" />
<glyph unicode="7" horiz-adv-x="1046" d="M102 1133v151h842v-59q0 -143 -153 -330q-4 -6 -10.5 -12t-17.5 -19.5t-32.5 -39t-56.5 -68.5q-111 -135 -162 -274.5t-51 -305.5v-176h-176v166q0 199 61.5 366.5t190.5 321.5q66 80 104.5 128t58 76.5t24.5 44t5 30.5h-627z" />
<glyph unicode="8" d="M102 344q0 121 62.5 208t206.5 165q-207 131 -207 297q0 135 99 212t272 77q172 0 271 -76t99 -205q0 -174 -207 -305q145 -78 207 -167t62 -218q0 -166 -112 -258t-320 -92q-209 0 -321 94t-112 268zM287 350q0 -98 65.5 -154.5t182.5 -56.5t182 56.5t65 154.5 q0 86 -56 148.5t-191 126.5q-135 -63 -191.5 -126t-56.5 -149zM340 1008q0 -61 50 -112.5t145 -90.5q94 39 144 90t50 109q0 68 -51 106.5t-143 38.5t-143.5 -39t-51.5 -102z" />
<glyph unicode="9" d="M102 864q0 205 116 323t321 118q94 0 173 -30t136 -85t88 -133t31 -174q0 -88 -30 -163t-82 -130t-126 -86t-162 -31q-86 0 -157 33q78 -113 185 -238t255 -268h-244q-133 135 -228 254t-156.5 224.5t-90.5 200.5t-29 185zM287 893q0 -119 67.5 -190.5t180.5 -71.5 q117 0 182 68.5t65 185.5q0 129 -65.5 198.5t-181.5 69.5q-111 0 -179.5 -71.5t-68.5 -188.5z" />
<glyph unicode=":" horiz-adv-x="1085" d="M102 1255l777 72l104 -143q-76 -217 -162 -411.5t-190 -373.5q47 -80 84 -155.5t67 -139.5l-127 -137q-104 242 -200.5 414t-175.5 266l96 146q47 -57 87 -117t81 -123q72 129 132 272.5t99 302.5l-655 -49z" />
<glyph unicode=";" horiz-adv-x="884" d="M102 256l50 184q168 -49 322.5 -129t307.5 -190l-63 -184q-168 119 -324 198.5t-293 120.5zM152 776l30 185q178 -41 313.5 -100.5t239.5 -139.5l-49 -184q-143 98 -279 156t-255 83zM152 1288l30 185q143 -25 279.5 -77.5t265.5 -123.5l-57 -176q-143 80 -275 128 t-243 64z" />
<glyph unicode="&#x37e;" horiz-adv-x="884" d="M102 256l50 184q168 -49 322.5 -129t307.5 -190l-63 -184q-168 119 -324 198.5t-293 120.5zM152 776l30 185q178 -41 313.5 -100.5t239.5 -139.5l-49 -184q-143 98 -279 156t-255 83zM152 1288l30 185q143 -25 279.5 -77.5t265.5 -123.5l-57 -176q-143 80 -275 128 t-243 64z" />
<glyph unicode="&#x3c;" horiz-adv-x="1155" d="M102 256l160 16q33 180 61.5 347t55.5 327t51.5 315.5t46.5 315.5l176 -74q-68 -348 -126 -646t-113 -576l383 47q-29 98 -60.5 183t-66.5 177l112 105q80 -160 147.5 -344.5t123.5 -401.5l-152 -88l-55 217l-705 -104z" />
<glyph unicode="=" horiz-adv-x="923" d="M102 88q129 135 216.5 295t142.5 344q-43 49 -73 83l-52.5 59.5t-38.5 45t-35 37.5l88 160q47 -47 91 -95t85 -97q31 113 59.5 264t43.5 344l168 -64q-35 -221 -73 -387t-79 -301q49 -55 93 -115.5t83 -123.5l-80 -185l-159 232q-63 -186 -155.5 -345t-221.5 -294z" />
<glyph unicode="&#x3e;" horiz-adv-x="1085" d="M102 664v176h314v368h-234v176h697v-176h-304v-368h408v-176h-408v-383q0 -57 24 -81t73 -24h278l-22 -176h-281q-113 0 -172 52t-59 163v449h-314z" />
<glyph unicode="?" horiz-adv-x="1171" d="M102 895l304 129l-72 487l143 33l74 -457l416 209l102 -159q-59 -180 -109.5 -330t-113.5 -279l-113 119q57 123 97 228.5t57 203.5l-314 -143l152 -1032l-160 -64l-135 1016l-297 -129z" />
<glyph unicode="A" horiz-adv-x="1073" d="M102 0l314 1202h239l316 -1202h-185l-84 346h-348l-86 -346h-166zM393 504h271l-136 543z" />
<glyph unicode="B" horiz-adv-x="1058" d="M102 0v1174h422q193 0 298.5 -83t105.5 -237q0 -180 -150 -242q178 -63 178 -268q0 -102 -36.5 -167.5t-100 -105.5t-147.5 -55.5t-178 -15.5h-392zM274 156h205q154 0 223.5 45t69.5 145q0 188 -276 189h-222v-379zM274 688h205q147 0 210 37t63 123q0 88 -62.5 129 t-204.5 41h-211v-330z" />
<glyph unicode="C" horiz-adv-x="921" d="M102 610q0 106 20.5 212t68 190t124 137t189.5 53q131 0 214 -74.5t97 -209.5h-178q-10 131 -141 131q-104 0 -156.5 -115t-52.5 -332q0 -229 52 -348t157 -119q66 0 104.5 36t40.5 97h178q-16 -135 -99 -211.5t-212 -76.5q-197 0 -301.5 161.5t-104.5 468.5z" />
<glyph unicode="D" horiz-adv-x="929" d="M102 0v1174h131q125 0 233.5 -48.5t188.5 -130.5t126 -191.5t46 -232.5q0 -133 -42 -238.5t-118.5 -179t-184 -113.5t-240.5 -40h-140zM272 158q84 0 153 31.5t117 86t73.5 126t25.5 155.5q0 86 -24.5 165t-71.5 140.5t-116 103.5t-157 54v-862z" />
<glyph unicode="E" horiz-adv-x="931" d="M102 0v1174h709v-148h-539v-332h473v-155h-473v-381h557v-158h-727z" />
<glyph unicode="F" horiz-adv-x="821" d="M102 0v1184h617v-150h-447v-332h367v-155h-367v-547h-170z" />
<glyph unicode="G" horiz-adv-x="1015" d="M102 602q0 141 33 254t95.5 191.5t151.5 119.5t200 41q135 0 222 -63.5t109 -179.5h-178q-27 45 -64.5 69.5t-84.5 24.5q-299 0 -299 -455q0 -467 291 -467q70 0 165 39v305h-258v156h428v-586q-113 -39 -191.5 -55t-146.5 -16q-223 0 -348 162.5t-125 459.5z" />
<glyph unicode="H" horiz-adv-x="956" d="M102 0v1194h170v-500h412v500h170v-1194h-170v539h-412v-539h-170z" />
<glyph unicode="I" horiz-adv-x="806" d="M102 0v158h215v864h-178v152h529v-152h-179v-864h216v-158h-603z" />
<glyph unicode="J" horiz-adv-x="811" d="M102 317v68h170v-63q0 -104 30 -144.5t101 -40.5q135 0 136 168v889h170v-834q0 -197 -74 -287.5t-229 -90.5q-304 -1 -304 335z" />
<glyph unicode="K" horiz-adv-x="1128" d="M102 0v1194h170v-496l484 496h229l-571 -565l612 -629h-240l-514 549v-549h-170z" />
<glyph unicode="L" horiz-adv-x="976" d="M102 0v1184h170v-1026h602v-158h-772z" />
<glyph unicode="M" horiz-adv-x="1048" d="M102 0v1194h277l145 -526l146 526h276v-1194h-170v1024l-186 -635h-139l-187 639v-1028h-162z" />
<glyph unicode="N" horiz-adv-x="995" d="M102 0v1194h205l424 -891v891h162v-1194h-197l-432 899v-899h-162z" />
<glyph unicode="O" horiz-adv-x="1056" d="M102 598q0 270 121 444q119 172 305 172q184 0 306 -172q121 -174 120 -444q0 -270 -120 -444q-121 -172 -306 -172q-186 0 -305 172q-121 174 -121 444zM287 602q0 -215 65.5 -338t175.5 -123q111 0 176.5 123t65.5 338t-65.5 337t-176.5 122t-176 -122t-65 -337z" />
<glyph unicode="P" horiz-adv-x="1009" d="M102 0v1184h410q186 0 290.5 -91.5t104.5 -250.5q0 -160 -100 -252t-275 -92h-260v-498h-170zM272 651h193q141 0 199.5 44t58.5 145q0 193 -242 192h-209v-381z" />
<glyph unicode="Q" horiz-adv-x="1136" d="M102 649q0 104 21.5 205.5t71 181.5t127 129t188.5 49t188.5 -53t126.5 -137t72 -187.5t23 -205.5q0 -111 -23 -199t-68 -170l205 -262h-217l-100 133q-53 -35 -102.5 -51t-100.5 -16q-113 0 -191.5 52t-128 135t-71 187.5t-21.5 208.5zM287 633q0 -193 61.5 -300.5 t167.5 -107.5q31 0 53.5 9.5t44.5 27.5l-239 316h215l117 -152q25 88 24 186q0 205 -61.5 326t-161.5 121q-111 0 -166 -107.5t-55 -318.5z" />
<glyph unicode="R" horiz-adv-x="1001" d="M102 0v1184h320q416 0 416 -340q0 -129 -61.5 -210t-184.5 -108l307 -526h-205l-276 498h-146v-498h-170zM272 653h131q250 0 250 183q0 104 -59 150t-195 46h-127v-379z" />
<glyph unicode="S" horiz-adv-x="954" d="M102 330h185v-6q0 -88 45 -136.5t127 -48.5q92 0 150.5 50.5t58.5 125.5q0 63 -41 109q-37 43 -197 121q-90 43 -150.5 84t-97.5 84t-52 89t-15 97q0 78 30.5 136.5t83 97t121 58t142.5 19.5q154 0 245.5 -81.5t102.5 -225.5h-183q-4 72 -51 113t-127 41t-131 -44 t-51 -110q0 -55 44 -100t163 -103q102 -49 168.5 -94t106.5 -91t56.5 -95t16.5 -107q0 -150 -107.5 -238.5t-287.5 -88.5q-168 0 -258.5 88t-96.5 256z" />
<glyph unicode="T" horiz-adv-x="1005" d="M102 1028v156h801v-156h-315v-1028h-170v1028h-316z" />
<glyph unicode="U" horiz-adv-x="1001" d="M102 399v795h170v-764q0 -84 13.5 -139t41 -88t71.5 -47.5t106 -14.5q125 0 178 64.5t53 222.5v766h164v-793q0 -217 -99.5 -318t-310.5 -101q-96 0 -168.5 32.5t-120.5 89t-73 132t-25 163.5z" />
<glyph unicode="V" horiz-adv-x="1107" d="M102 1194h183l272 -1030l268 1030h181l-330 -1194h-244z" />
<glyph unicode="W" horiz-adv-x="1052" d="M102 1194h177q2 -268 17 -494.5t46 -425.5l115 455h153l121 -455q14 123 23.5 225.5t15.5 207t10 221t8 266.5h162q-4 -172 -10 -323.5t-19.5 -296t-35 -284.5t-56.5 -290h-178l-121 434l-116 -434h-183q-37 147 -60.5 287.5t-36.5 284t-19.5 296t-12.5 326.5z" />
<glyph unicode="X" horiz-adv-x="1085" d="M102 0l334 608l-332 586h205l232 -424l235 424h189l-320 -576l338 -618h-203l-241 457l-242 -457h-195z" />
<glyph unicode="Y" d="M102 1194h203l240 -459l235 459h187l-338 -637v-557h-170v539z" />
<glyph unicode="Z" horiz-adv-x="913" d="M102 0v135l455 885h-448v154h645v-142l-449 -876h506v-156h-709z" />
<glyph unicode="[" horiz-adv-x="964" d="M102 831v177h760v-144q0 -371 -127 -630t-385 -418l-80 151q418 244 432 864h-600zM182 1296v177h609v-177h-609z" />
<glyph unicode="\" horiz-adv-x="868" d="M102 72v176h504v432h-471v176h471v383h-504v176h664v-1462h-160v119h-504z" />
<glyph unicode="]" horiz-adv-x="819" d="M102 545v919h160v-919h-160zM262 -25q154 113 224.5 297.5t70.5 432.5v831h160v-840q0 -592 -350 -864z" />
<glyph unicode="^" horiz-adv-x="1118" d="M102 121v176h512v743h-374v177h536v-920h240v-176h-914z" />
<glyph unicode="_" horiz-adv-x="1077" d="M102 696v152h873v-152h-873z" />
<glyph unicode="a" horiz-adv-x="995" d="M102 1239v176l703 25l88 -105q-4 -594 -153.5 -948t-452.5 -491l-88 151q209 98 327.5 284.5t151.5 461.5h-537v176h561q10 57 14.5 102t4.5 90v37q0 20 -4 41h-615z" />
<glyph unicode="b" horiz-adv-x="950" d="M102 952v152l652 24l94 -151q-57 -156 -116.5 -270.5t-139.5 -202.5l-64 80v-176q0 -358 -209 -568l-104 105q176 195 176 463v432l137 -9v-167q109 113 144 288h-570z" />
<glyph unicode="c" horiz-adv-x="876" d="M102 391q350 305 545 848l127 -88q-8 -31 -27.5 -77t-46 -99t-57.5 -110.5t-59 -112.5v-904h-138v705q-55 -82 -119.5 -153.5t-136.5 -143.5z" />
<glyph unicode="d" horiz-adv-x="917" d="M102 416v536h281v328h135v-328h242l55 -71q0 -387 -87 -654.5t-273 -427.5l-97 121q160 135 237 354.5t77 526.5h-432v-385h-138z" />
<glyph unicode="e" horiz-adv-x="909" d="M102 80v151h281v633h-231v152h583v-152h-217v-633h289v-151h-705z" />
<glyph unicode="f" horiz-adv-x="995" d="M102 104q119 143 203 311.5t141 360.5h-329v152h368v360h138v-360h270v-152h-270v-776q0 -160 -162 -160h-72l-22 152h79q23 0 31 12t8 37v487q-47 -154 -119.5 -283.5t-166.5 -252.5z" />
<glyph unicode="g" horiz-adv-x="1013" d="M102 688l265 121l-80 399l135 47l65 -391l359 176l65 -104l-176 -537l-104 88l112 361l-233 -121l160 -840l-135 -55l-144 832l-241 -127z" />
<glyph unicode="h" horiz-adv-x="987" d="M102 63v152h416v600h-321v154h456v-754h232v-152h-783z" />
<glyph unicode="i" horiz-adv-x="774" d="M102 0v152h433v335h-408v152h408v322h-433v151h570v-1192h-137v80h-433z" />
<glyph unicode="j" horiz-adv-x="917" d="M102 961l113 71l113 -399l-113 -66zM264 -16q209 129 308.5 411.5t99.5 716.5l143 -25q-2 -197 -28.5 -383t-82 -348.5t-141.5 -290.5t-205 -208zM319 1065l105 63l111 -376l-103 -72z" />
<glyph unicode="k" horiz-adv-x="1052" d="M102 1272l105 143q80 -94 139.5 -186t99.5 -172l-112 -146q-47 88 -108 180.5t-124 180.5zM111 160q557 111 702 911l137 -127q-80 -401 -272.5 -643t-519.5 -334z" />
<glyph unicode="l" horiz-adv-x="1093" d="M102 1393l768 39l121 -152q-41 -106 -77.5 -193.5t-74.5 -160t-76 -134t-77 -112.5l-72 80q0 -297 -67.5 -523.5t-210.5 -379.5l-113 135q119 129 175.5 316.5t56.5 434.5v361h159v-240q72 104 116 195.5t69 179.5l-688 -22z" />
<glyph unicode="m" horiz-adv-x="989" d="M102 567q199 178 364 424t284 578l137 -137q-20 -39 -43 -91.5t-51.5 -113t-65.5 -128t-82 -138.5v-1096h-160v870q-63 -98 -139 -181t-164 -155z" />
<glyph unicode="n" horiz-adv-x="1003" d="M102 567v650h312v407h159v-407h328v-218q0 -377 -107.5 -671.5t-330.5 -511.5l-96 151q186 178 280 444.5t94 628.5h-479v-473h-160z" />
<glyph unicode="o" d="M102 160v176h361v784h-281v176h721v-176h-280v-784h344v-176h-865z" />
<glyph unicode="p" horiz-adv-x="1148" d="M102 193q301 317 416 798h-385v176h432v432h160v-432h322v-176h-322v-975q0 -88 -40 -128t-128 -40h-111l-24 177h96q25 0 36 11t11 44v600q-63 -193 -150 -347.5t-210 -277.5z" />
<glyph unicode="q" horiz-adv-x="997" d="M102 25q135 178 212 411.5t92 540.5h-295v174h295v440h161v-432h328v-575q0 -111 -4 -227.5t-29.5 -212t-79 -156t-151.5 -60.5h-96l-9 185h80q41 0 64.5 15t31.5 56q4 18 8.5 58.5t8.5 126.5t6 233.5t2 380.5h-168q-16 -346 -100 -615.5t-244 -471.5z" />
<glyph unicode="r" horiz-adv-x="1146" d="M102 584l408 80l-41 368l-281 -63l-14 176l279 55l-47 377l135 31l49 -369l295 74l16 -176l-287 -66l39 -383l377 88l14 -168l-374 -80l80 -641l-160 -39l-72 648l-401 -88z" />
<glyph unicode="s" horiz-adv-x="1011" d="M102 696q123 168 194 398.5t101 521.5l162 -55q-16 -49 -30.5 -123t-43.5 -166l330 24l94 -137q-43 -465 -181 -795.5t-370 -547.5l-96 143q416 401 465 1137h-281q-66 -270 -223 -512z" />
<glyph unicode="t" horiz-adv-x="1132" d="M102 639q88 147 148.5 380.5t99.5 571.5l154 -47q-8 -68 -26.5 -177.5t-47.5 -246.5h600v-176h-231q-25 -379 -109 -653.5t-227 -442.5l-127 111q135 137 211 384t100 601h-264q-25 -123 -64.5 -221t-95.5 -186z" />
<glyph unicode="u" horiz-adv-x="925" d="M102 127v176h562v746h-562v176h721v-1200h-159v102h-562z" />
<glyph unicode="v" horiz-adv-x="1155" d="M102 889v176h191v438h160v-438h225v504h160v-504h215v-176h-215v-113q0 -307 -83 -533.5t-261 -385.5l-113 143q154 135 225.5 327.5t71.5 440.5v121h-225v-424h-160v424h-191z" />
<glyph unicode="w" horiz-adv-x="1110" d="M102 936l88 143q172 -172 232 -278l-94 -137q-57 80 -113 148.5t-113 123.5zM207 104q223 111 390 350.5t290 616.5l121 -127q-104 -336 -277.5 -582.5t-443.5 -424.5zM223 1407l88 145q80 -80 136.5 -148.5t87.5 -115.5l-89 -151q-147 209 -223 270z" />
<glyph unicode="x" horiz-adv-x="1110" d="M102 72q203 227 338 508.5t215 627.5l-424 -57l-24 184l528 72l121 -152q-51 -166 -98 -299t-94 -251q111 -178 198.5 -329t145.5 -280l-129 -143q-88 199 -160 343t-135 232q-88 -193 -179.5 -336t-189.5 -247z" />
<glyph unicode="y" horiz-adv-x="1085" d="M102 903l265 74v551h159v-496l385 135l72 -135q-39 -160 -95.5 -312.5t-127.5 -295.5l-129 88q72 135 116 247.5t60 201.5l-281 -105v-608q0 -96 97 -96h305v-177h-385q-176 0 -176 177v649l-240 -88z" />
<glyph unicode="z" horiz-adv-x="995" d="M102 1288l136 96q63 -168 103 -295.5t48 -207.5l-143 -97q-16 104 -52.5 232.5t-91.5 271.5zM246 25q217 186 336.5 527t142.5 855l168 -39q-14 -244 -55 -472t-108.5 -425t-165 -351.5t-222.5 -248.5z" />
<glyph unicode="{" horiz-adv-x="1187" d="M102 47q98 137 144.5 312.5t46.5 383.5v609h162v-639q0 -451 -242 -817zM543 80l14 1360h160v-1159q82 80 149.5 211t122.5 309l96 -146q-72 -209 -182 -375.5t-266 -320.5z" />
<glyph unicode="|" horiz-adv-x="942" d="M102 88v1255h738v-1216h-160v96h-416v-135h-162zM264 399h416v768h-416v-768z" />
<glyph unicode="}" horiz-adv-x="980" d="M102 55v1377h168v-1256q319 145 496 752l113 -152q-80 -299 -245 -504.5t-435 -334.5z" />
<glyph unicode="~" horiz-adv-x="978" d="M102 721v694h775v-391q0 -735 -480 -1104l-96 160q416 256 416 944v215h-455v-518h-160z" />
<glyph unicode="&#xa9;" horiz-adv-x="3076" d="M102 565q0 12 2 17q10 121 17.5 208t11.5 156.5t6 129t2 124.5q0 47 10.5 78t26.5 31t27.5 -13.5t19.5 -34t16.5 -46t18.5 -48.5q16 -55 27.5 -92t20.5 -67.5t21.5 -65.5t32.5 -86q8 -18 15.5 -38.5t23.5 -39.5q14 31 23.5 51.5t17 42t12.5 49t13 72.5q12 70 12 133 q0 70 -17.5 132.5t-58.5 121.5q-14 25 -14 54q0 14 5 26.5t22 18.5l20 4q39 -10 63.5 -48t39 -91.5t19.5 -116t5 -119.5q0 -53 -3 -96t-7 -66q-4 -29 -17.5 -62.5t-27.5 -70.5t-24.5 -77t-10.5 -81v-20q0 -10 4 -33q0 -37 -18 -37q-20 0 -50 35t-51 70q-39 66 -68.5 144.5 t-66.5 168.5v-55q0 -4 -1 -30t-4 -64.5t-9 -87t-14 -95.5q0 -6 -5.5 -27.5t-15.5 -45t-24.5 -44t-30.5 -26.5q-8 8 -12.5 25.5t-4.5 31.5zM526 793q0 35 15.5 72.5t40 69.5t53.5 55.5t53 27.5l23 -27l16 78q111 -43 164 -127t53 -197q0 -37 -19.5 -67.5t-48 -53t-65.5 -34.5 t-70 -12q-16 0 -24 2q-8 -14 -29 -15q-59 6 -91 33t-47 59.5t-18.5 64.5t-3.5 46q-2 11 -2 25zM608 768q0 -35 25.5 -60.5t77.5 -25.5q82 0 128 37t46 82q0 51 -45 98t-111 59l14 -73q-49 -4 -87 -34t-48 -83zM903 1085q0 10 10.5 30t24.5 26l3 -5q3 -5 10 -19.5t18.5 -42 t27.5 -75.5q16 -25 17 -65v-21q0 -10 -2 -22q8 27 12 51.5t10 47t14.5 46t24.5 49.5q18 16 49 21.5t103 5.5l16 -27q12 33 25 33q10 0 10 -39q0 -23 -8 -49t-31 -39q-35 -6 -55.5 -11t-33.5 -11t-23.5 -15.5t-24.5 -23.5q-4 -49 -22.5 -96.5t-18.5 -100.5q0 -10 1 -18t3 -19 q-4 -29 -17.5 -49t-44.5 -31q-8 10 -12 22.5t-10 27.5q-20 94 -29.5 141t-11.5 86q0 18 -5 44t-12.5 53.5t-12.5 53t-5 41.5zM1001 98q2 92 52.5 153.5t122 105.5t151.5 80t143 79q66 29 116 75t83 100t49.5 112.5t16.5 114.5q0 76 -36 127t-114 67q-45 0 -75.5 -9 t-54 -25.5t-44 -42t-45.5 -58.5q-10 -12 -16.5 -52t-24.5 -94q-66 -199 -116 -296t-85 -115q57 111 90 237.5t48 237.5q14 113 30 270l-18 2q-23 0 -53.5 -5t-64.5 -13t-67.5 -17.5t-60.5 -17.5q0 29 29.5 55.5t71.5 48t88.5 37t80.5 21.5q2 68 4.5 105.5t4.5 58t3 27 t1 10.5q4 37 7 82t3 88q0 18 -1 34.5t-3 32.5q-4 -47 -14.5 -108.5t-39 -124t-84 -120.5t-151.5 -97l21 24q74 61 125 156.5t81.5 202t45 213t14.5 190.5q35 -92 55.5 -228t20.5 -284q0 -63 -4.5 -114.5t-14.5 -125.5q59 33 107.5 41.5t83.5 8.5q72 0 121 -37t108 -94 q-51 10 -94 26.5t-92 16.5q-43 0 -96.5 -17.5t-133.5 -66.5l-12 -142l80 90q57 63 151 64q43 0 88.5 -17.5t80 -52.5t57 -86t22.5 -117q-8 -90 -43 -159.5t-86 -121.5t-112.5 -92t-122.5 -73q-72 -39 -137.5 -71.5t-115.5 -74.5t-80 -99.5t-30 -143.5q0 -68 33 -125t85 -99 t116.5 -65.5t128.5 -23.5q-27 -10 -48.5 -12.5t-48.5 -2.5q-74 0 -142.5 29t-120.5 76t-84 109t-34 132zM1630 119v170h23l90 -133v133h22v-170h-24l-88 131v-131h-23zM1794 180q0 33 18 49q14 14 37 15q25 0 41.5 -17.5t16.5 -46.5q0 -33 -16.5 -48t-41.5 -15t-40 15 t-15 48zM1815 180q0 -43 34 -43q37 0 37 43q0 20 -11 31.5t-26 11.5q-34 0 -34 -43zM1862 920q0 35 15 72.5t40 69.5t53.5 55.5t52.5 27.5l23 -27l16 78q119 -41 168 -114.5t49 -209.5q0 -37 -19 -67.5t-48 -53t-66 -34.5t-69 -12q-16 0 -25 2q-8 -14 -29 -15 q-59 6 -90.5 33t-47 59.5t-18.5 64.5t-3 46q-2 11 -2 25zM1933 119v123h19v-19q10 20 24 21q10 0 23 -6l-8 -21q-10 6 -15 6q-16 0 -20 -16q-2 -8 -2 -25v-63h-21zM1939 891q0 -35 26 -60.5t77 -25.5q82 0 128 37t46 82q0 51 -45 98t-111 59l15 -73q-49 -4 -87.5 -34 t-48.5 -83zM1999 221v21h18v12q0 14 2 18q4 18 31 19q4 0 21 -4l-5 -19q-4 2 -12 2q-16 0 -16 -18v-10h24v-21h-24v-102h-21v102h-18zM2073 180q0 33 18 49q14 14 37 15q25 0 41 -17.5t16 -46.5q0 -33 -16.5 -48t-40.5 -15q-25 0 -40 15t-15 48zM2093 180q0 -43 35 -43 q37 0 37 43q0 20 -11.5 31.5t-25.5 11.5q-35 0 -35 -43zM2210 119v170h20v-94l49 47h31l-49 -47l51 -76h-24l-41 61l-17 -14v-47h-20zM2294 780v107q0 55 4 102q2 29 3 60.5t1 66.5q0 92 -3 192.5t-5 174.5q8 43 22 43q12 0 27.5 -37t28 -87t20.5 -100.5t10 -74.5v-172 q94 78 151.5 152.5t96.5 154.5q18 41 39 77t37 36l39 -99q-12 -31 -22.5 -62.5t-23 -62t-30.5 -61.5t-45 -57q-43 -43 -99.5 -100.5t-97.5 -127.5q-14 0 -28 -33q25 0 66.5 -18t86.5 -40.5t85 -45.5t59 -33q18 -41 29.5 -65.5t16.5 -36.5t6 -16.5t1 -6.5q0 -12 -12 -12 q-29 0 -66 15.5t-77 36t-77.5 40t-64.5 29.5q-23 8 -40 15t-38 16q-4 -68 -9 -103t-5 -55q-6 -51 -4 -94t-9 -43q-6 0 -22 26.5t-49 91.5q0 6 -1 66.5t-1 140.5zM2337 272q0 29 19.5 49.5t47.5 20.5q27 0 47.5 -20.5t20.5 -49.5t-20.5 -47t-47.5 -18q-29 0 -48 18t-19 47z M2349 272q0 -23 16.5 -38t38.5 -15q20 0 38 15.5t18 37.5q0 25 -17.5 41.5t-38.5 16.5q-23 0 -39 -16.5t-16 -41.5zM2374 233v82h24q35 0 35 -22q0 -23 -25 -23l9 -6q4 -4 10 -16l10 -15h-14l-8 13q-10 14 -13 18q-4 4 -10 4h-6v-35h-12zM2386 281h14q20 0 21 10 q0 12 -21 12h-14v-22zM2574 119v170h23v-170h-23zM2636 119v123h20v-19q12 20 37 21q20 0 28.5 -9.5t12.5 -21.5q2 -4 2 -20v-74h-20v71q0 33 -27 33q-14 0 -23.5 -8t-9.5 -33v-63h-20zM2763 178q0 66 55 66q39 0 49 -39l-20 -2q-4 8 -11.5 14t-17.5 6q-35 0 -35 -43t33 -43 q25 0 33 27l20 -2q-4 -23 -18.5 -34t-32.5 -11q-55 0 -55 61zM2828 1450q0 31 21.5 53.5t50.5 22.5q41 0 63 -39q10 -16 11 -37q0 -18 -9.5 -36.5t-27.5 -29.5q-20 -10 -37 -10q-16 0 -34.5 10.5t-29.5 28.5q-8 17 -8 37zM2841 1450q0 -31 30 -55q14 -8 29 -9q16 0 30.5 9.5 t22.5 23.5t8 31q0 27 -18 45t-43 18q-14 0 -28.5 -8t-22.5 -24q-8 -15 -8 -31zM2869 1409v80h27q27 0 29 -10q4 -4 4 -13q0 -8 -7 -14q-4 -4 -16 -8l8 -4q4 -4 11 -17l10 -14h-17l-6 12q-10 16 -14 19q-2 2 -10 2h-6v-33h-13zM2882 1454h16q10 0 14 4t4 8q0 8 -8 11 q-2 2 -12 2h-14v-25zM2892 119v20h20v-20h-20z" />
<glyph unicode="&#xaa;" horiz-adv-x="995" d="M102 1239v176l703 25l88 -105q-4 -594 -153.5 -948t-452.5 -491l-88 151q209 98 327.5 284.5t151.5 461.5h-537v176h561q10 57 14.5 102t4.5 90v37q0 20 -4 41h-615z" />
<glyph unicode="&#xad;" horiz-adv-x="1003" d="M102 1184v176l689 24l110 -129q-35 -532 -196.5 -853.5t-450.5 -448.5l-88 174q258 104 397 367.5t154 689.5h-615z" />
<glyph unicode="&#xb2;" horiz-adv-x="987" d="M102 952q0 162 112 257.5t304 95.5q98 0 182 -22.5t160 -70.5v-200q-113 76 -197.5 110.5t-152.5 34.5q-47 0 -87 -14.5t-68.5 -39t-45 -58t-16.5 -72.5q0 -70 40 -126t144 -128l146 -98q145 -98 202 -218q59 -119 60 -317v-47q0 -14 -2 -29h-760v156h567v37q0 45 -10 83 t-36 74.5t-67.5 72.5t-105.5 79l-119 78q-135 88 -192.5 173t-57.5 189z" />
<glyph unicode="&#xb3;" horiz-adv-x="1021" d="M102 -18v155h547l-344 352v129q20 0 42 -2t24 -2q186 0 273 58.5t87 183.5q0 123 -81 195.5t-216 72.5q-86 0 -166 -21.5t-166 -68.5v185q178 66 320 65q117 0 209 -29.5t156.5 -84t98.5 -131t34 -173.5q0 -168 -99.5 -269t-277.5 -110l329 -329v-176h-770z" />
<glyph unicode="&#xb9;" horiz-adv-x="702" d="M102 807v227l304 250h194v-1284h-186v1079z" />
<glyph unicode="&#xba;" d="M102 160v176h361v784h-281v176h721v-176h-280v-784h344v-176h-865z" />
<glyph unicode="&#xc2;" horiz-adv-x="1073" d="M77 1338v176h512v743h-374v177h536v-920h240v-176h-914zM102 0l314 1202h239l316 -1202h-185l-84 346h-348l-86 -346h-166zM393 504h271l-136 543z" />
<glyph unicode="&#xc3;" horiz-adv-x="1073" d="M147 2138v694h775v-391q0 -735 -480 -1104l-96 160q416 256 416 944v215h-455v-518h-160zM102 0l314 1202h239l316 -1202h-185l-84 346h-348l-86 -346h-166zM393 504h271l-136 543z" />
<glyph unicode="&#xca;" horiz-adv-x="931" d="M0 1338v176h512v743h-374v177h536v-920h240v-176h-914zM102 0v1174h709v-148h-539v-332h473v-155h-473v-381h557v-158h-727z" />
<glyph unicode="&#xce;" horiz-adv-x="806" d="M-54 1338v176h512v743h-374v177h536v-920h240v-176h-914zM102 0v158h215v864h-178v152h529v-152h-179v-864h216v-158h-603z" />
<glyph unicode="&#xd1;" horiz-adv-x="995" d="M110 2138v694h775v-391q0 -735 -480 -1104l-96 160q416 256 416 944v215h-455v-518h-160zM102 0v1194h205l424 -891v891h162v-1194h-197l-432 899v-899h-162z" />
<glyph unicode="&#xd4;" horiz-adv-x="1056" d="M71 1338v176h512v743h-374v177h536v-920h240v-176h-914zM102 598q0 270 121 444q119 172 305 172q184 0 306 -172q121 -174 120 -444q0 -270 -120 -444q-121 -172 -306 -172q-186 0 -305 172q-121 174 -121 444zM287 602q0 -215 65.5 -338t175.5 -123q111 0 176.5 123 t65.5 338t-65.5 337t-176.5 122t-176 -122t-65 -337z" />
<glyph unicode="&#xd5;" horiz-adv-x="1056" d="M141 2138v694h775v-391q0 -735 -480 -1104l-96 160q416 256 416 944v215h-455v-518h-160zM102 598q0 270 121 444q119 172 305 172q184 0 306 -172q121 -174 120 -444q0 -270 -120 -444q-121 -172 -306 -172q-186 0 -305 172q-121 174 -121 444zM287 602 q0 -215 65.5 -338t175.5 -123q111 0 176.5 123t65.5 338t-65.5 337t-176.5 122t-176 -122t-65 -337z" />
<glyph unicode="&#xdb;" horiz-adv-x="1001" d="M45 1338v176h512v743h-374v177h536v-920h240v-176h-914zM102 399v795h170v-764q0 -84 13.5 -139t41 -88t71.5 -47.5t106 -14.5q125 0 178 64.5t53 222.5v766h164v-793q0 -217 -99.5 -318t-310.5 -101q-96 0 -168.5 32.5t-120.5 89t-73 132t-25 163.5z" />
<glyph unicode="&#xe2;" horiz-adv-x="995" d="M348 1563v176h512v743h-374v177h536v-920h240v-176h-914zM102 1239v176l703 25l88 -105q-4 -594 -153.5 -948t-452.5 -491l-88 151q209 98 327.5 284.5t151.5 461.5h-537v176h561q10 57 14.5 102t4.5 90v37q0 20 -4 41h-615z" />
<glyph unicode="&#xe3;" horiz-adv-x="995" d="M417 2363v694h775v-391q0 -735 -480 -1104l-96 160q416 256 416 944v215h-455v-518h-160zM102 1239v176l703 25l88 -105q-4 -594 -153.5 -948t-452.5 -491l-88 151q209 98 327.5 284.5t151.5 461.5h-537v176h561q10 57 14.5 102t4.5 90v37q0 20 -4 41h-615z" />
<glyph unicode="&#xea;" horiz-adv-x="909" d="M-13 1419v176h512v743h-374v177h536v-920h240v-176h-914zM102 80v151h281v633h-231v152h583v-152h-217v-633h289v-151h-705z" />
<glyph unicode="&#xee;" horiz-adv-x="774" d="M-70 1419v176h512v743h-374v177h536v-920h240v-176h-914zM102 0v152h433v335h-408v152h408v322h-433v151h570v-1192h-137v80h-433z" />
<glyph unicode="&#xf1;" horiz-adv-x="1003" d="M114 2548v694h775v-391q0 -735 -480 -1104l-96 160q416 256 416 944v215h-455v-518h-160zM102 567v650h312v407h159v-407h328v-218q0 -377 -107.5 -671.5t-330.5 -511.5l-96 151q186 178 280 444.5t94 628.5h-479v-473h-160z" />
<glyph unicode="&#xf4;" d="M86 1419v176h512v743h-374v177h536v-920h240v-176h-914zM102 160v176h361v784h-281v176h721v-176h-280v-784h344v-176h-865z" />
<glyph unicode="&#xf5;" d="M155 2220v694h775v-391q0 -735 -480 -1104l-96 160q416 256 416 944v215h-455v-518h-160zM102 160v176h361v784h-281v176h721v-176h-280v-784h344v-176h-865z" />
<glyph unicode="&#xfb;" horiz-adv-x="925" d="M6 1419v176h512v743h-374v177h536v-920h240v-176h-914zM102 127v176h562v746h-562v176h721v-1200h-159v102h-562z" />
<glyph unicode="&#x152;" horiz-adv-x="1988" d="M1159 0v1174h709v-148h-539v-332h473v-155h-473v-381h557v-158h-727zM102 598q0 270 121 444q119 172 305 172q184 0 306 -172q121 -174 120 -444q0 -270 -120 -444q-121 -172 -306 -172q-186 0 -305 172q-121 174 -121 444zM287 602q0 -215 65.5 -338t175.5 -123 q111 0 176.5 123t65.5 338t-65.5 337t-176.5 122t-176 -122t-65 -337z" />
<glyph unicode="&#x153;" horiz-adv-x="1978" d="M1171 80v151h281v633h-231v152h583v-152h-217v-633h289v-151h-705zM102 160v176h361v784h-281v176h721v-176h-280v-784h344v-176h-865z" />
<glyph unicode="&#x2c6;" horiz-adv-x="1118" d="M102 121v176h512v743h-374v177h536v-920h240v-176h-914z" />
<glyph unicode="&#x2000;" horiz-adv-x="1619" />
<glyph unicode="&#x2001;" horiz-adv-x="3241" />
<glyph unicode="&#x2002;" horiz-adv-x="1619" />
<glyph unicode="&#x2003;" horiz-adv-x="3241" />
<glyph unicode="&#x2004;" horiz-adv-x="1079" />
<glyph unicode="&#x2005;" horiz-adv-x="808" />
<glyph unicode="&#x2006;" horiz-adv-x="538" />
<glyph unicode="&#x2007;" horiz-adv-x="538" />
<glyph unicode="&#x2008;" horiz-adv-x="403" />
<glyph unicode="&#x2009;" horiz-adv-x="647" />
<glyph unicode="&#x200a;" horiz-adv-x="178" />
<glyph unicode="&#x2010;" horiz-adv-x="1003" d="M102 1184v176l689 24l110 -129q-35 -532 -196.5 -853.5t-450.5 -448.5l-88 174q258 104 397 367.5t154 689.5h-615z" />
<glyph unicode="&#x2011;" horiz-adv-x="1003" d="M102 1184v176l689 24l110 -129q-35 -532 -196.5 -853.5t-450.5 -448.5l-88 174q258 104 397 367.5t154 689.5h-615z" />
<glyph unicode="&#x2012;" horiz-adv-x="1003" d="M102 1184v176l689 24l110 -129q-35 -532 -196.5 -853.5t-450.5 -448.5l-88 174q258 104 397 367.5t154 689.5h-615z" />
<glyph unicode="&#x2013;" horiz-adv-x="1024" d="M205 512v205h614v-205h-614z" />
<glyph unicode="&#x2014;" horiz-adv-x="2048" d="M205 512v205h1638v-205h-1638z" />
<glyph unicode="&#x2019;" d="M102 193v176h865v-176h-865zM223 1104v176h617v-176h-617z" />
<glyph unicode="&#x201c;" horiz-adv-x="1093" d="M102 705v176h402v286q-74 -16 -145.5 -23t-143.5 -7l-25 159q168 8 328 52.5t313 132.5l80 -154q-63 -49 -123.5 -75.5t-123.5 -43.5v-327h327v-176h-327q0 -526 -273 -865l-121 152q123 135 178.5 310t55.5 403h-402z" />
<glyph unicode="&#x201d;" horiz-adv-x="1093" d="M102 705v176h402v286q-74 -16 -145.5 -23t-143.5 -7l-25 159q168 8 328 52.5t313 132.5l80 -154q-63 -49 -123.5 -75.5t-123.5 -43.5v-327h327v-176h-327q0 -526 -273 -865l-121 152q123 135 178.5 310t55.5 403h-402z" />
<glyph unicode="&#x2026;" horiz-adv-x="3514" d="M2445 608q14 18 45 72.5t68 123t75 144.5t70.5 138.5t54 103.5t23.5 43q20 20 51 20q33 0 60 -20q23 -23 58.5 -83t79.5 -140t94 -172.5t100.5 -178.5t98.5 -157.5t89 -110.5l-119 -160q-123 203 -232.5 390.5t-207.5 361.5q-10 16 -16 16q-10 0 -17 -16 q-111 -238 -256 -512zM1273 608q14 18 45 72.5t68 123t75 144.5t70.5 138.5t54 103.5t23.5 43q20 20 51 20q33 0 60 -20q23 -23 58.5 -83t79.5 -140t94 -172.5t100.5 -178.5t98.5 -157.5t89 -110.5l-119 -160q-123 203 -232.5 390.5t-207.5 361.5q-10 16 -16 16 q-10 0 -17 -16q-111 -238 -256 -512zM102 608q14 18 45 72.5t68 123t75 144.5t70.5 138.5t54 103.5t23.5 43q20 20 51 20q33 0 60 -20q23 -23 58.5 -83t79.5 -140t94 -172.5t100.5 -178.5t98.5 -157.5t89 -110.5l-119 -160q-123 203 -232.5 390.5t-207.5 361.5 q-10 16 -16 16q-10 0 -17 -16q-111 -238 -256 -512z" />
<glyph unicode="&#x202f;" horiz-adv-x="647" />
<glyph unicode="&#x2039;" horiz-adv-x="1155" d="M102 256l160 16q33 180 61.5 347t55.5 327t51.5 315.5t46.5 315.5l176 -74q-68 -348 -126 -646t-113 -576l383 47q-29 98 -60.5 183t-66.5 177l112 105q80 -160 147.5 -344.5t123.5 -401.5l-152 -88l-55 217l-705 -104z" />
<glyph unicode="&#x203a;" horiz-adv-x="1085" d="M102 664v176h314v368h-234v176h697v-176h-304v-368h408v-176h-408v-383q0 -57 24 -81t73 -24h278l-22 -176h-281q-113 0 -172 52t-59 163v449h-314z" />
<glyph unicode="&#x205f;" horiz-adv-x="808" />
<glyph unicode="&#x2122;" horiz-adv-x="2054" d="M1108 0v1194h277l145 -526l146 526h276v-1194h-170v1024l-186 -635h-139l-187 639v-1028h-162zM102 1028v156h801v-156h-315v-1028h-170v1028h-316z" />
<glyph unicode="&#xe000;" horiz-adv-x="1405" d="M0 1405h1405v-1405h-1405v1405z" />
<glyph unicode="&#xfb01;" horiz-adv-x="1769" d="M1097 0v152h433v335h-408v152h408v322h-433v151h570v-1192h-137v80h-433zM102 104q119 143 203 311.5t141 360.5h-329v152h368v360h138v-360h270v-152h-270v-776q0 -160 -162 -160h-72l-22 152h79q23 0 31 12t8 37v487q-47 -154 -119.5 -283.5t-166.5 -252.5z" />
<glyph unicode="&#xfb02;" horiz-adv-x="2088" d="M1097 1393l768 39l121 -152q-41 -106 -77.5 -193.5t-74.5 -160t-76 -134t-77 -112.5l-72 80q0 -297 -67.5 -523.5t-210.5 -379.5l-113 135q119 129 175.5 316.5t56.5 434.5v361h159v-240q72 104 116 195.5t69 179.5l-688 -22zM102 104q119 143 203 311.5t141 360.5h-329 v152h368v360h138v-360h270v-152h-270v-776q0 -160 -162 -160h-72l-22 152h79q23 0 31 12t8 37v487q-47 -154 -119.5 -283.5t-166.5 -252.5z" />
<glyph unicode="&#xfb03;" horiz-adv-x="2764" d="M2093 0v152h433v335h-408v152h408v322h-433v151h570v-1192h-137v80h-433zM1097 104q119 143 203 311.5t141 360.5h-329v152h368v360h138v-360h270v-152h-270v-776q0 -160 -162 -160h-72l-22 152h79q23 0 31 12t8 37v487q-47 -154 -119.5 -283.5t-166.5 -252.5zM102 104 q119 143 203 311.5t141 360.5h-329v152h368v360h138v-360h270v-152h-270v-776q0 -160 -162 -160h-72l-22 152h79q23 0 31 12t8 37v487q-47 -154 -119.5 -283.5t-166.5 -252.5z" />
<glyph unicode="&#xfb04;" horiz-adv-x="3084" d="M2093 1393l768 39l121 -152q-41 -106 -77.5 -193.5t-74.5 -160t-76 -134t-77 -112.5l-72 80q0 -297 -67.5 -523.5t-210.5 -379.5l-113 135q119 129 175.5 316.5t56.5 434.5v361h159v-240q72 104 116 195.5t69 179.5l-688 -22zM1097 104q119 143 203 311.5t141 360.5h-329 v152h368v360h138v-360h270v-152h-270v-776q0 -160 -162 -160h-72l-22 152h79q23 0 31 12t8 37v487q-47 -154 -119.5 -283.5t-166.5 -252.5zM102 104q119 143 203 311.5t141 360.5h-329v152h368v360h138v-360h270v-152h-270v-776q0 -160 -162 -160h-72l-22 152h79q23 0 31 12 t8 37v487q-47 -154 -119.5 -283.5t-166.5 -252.5z" />
</font>
</defs>
</svg>
